<svg version="1.1" id="Layer_1" xmlns="http://www.w3.org/2000/svg" x="0" y="0" viewBox="0 0 530 290" style="enable-background:new 0 0 530 290" xml:space="preserve"><style>.st0{fill:#1e295b}</style><path class="st0" d="M31.31 87.37c-.31 4-.48 8-.53 12-.14 11.42-.52 23.2 2.53 34.32 2.59 9.44 9.71 23.61 21.81 20.81 4.26-.99 7.8-4.06 10.26-7.67 2.46-3.61 3.98-7.77 5.48-11.88 2.09-5.75 3.09-11.93 5.83-17.44 2.93-5.9 11.09-14.43 17.59-15.59 4.71-.84 9.55 1.58 12.75 5.14s5.02 8.12 6.57 12.65c2.88 8.45 3.15 19.3 7.05 27.19.64 1.3 1.3 2.35 2.33 3.29 1.14 1.03 2.14 2.2 3.26 3.25 1.19 1.11 3.23 1.29 4.41.49.9-.61 1.11-2.2.71-3.73-9.06-34.82-10.25-69.16-5.48-104.89.94-7 1.49-14.86 5.24-21.04 4.71-7.77 15.11-10.01 21.74-3.02 3.21 3.38 4.9 7.9 6.23 12.37 8.38 28.15 5.7 58.65 2.29 87.37-.56 4.76-1.71 9.45-2.61 14.17-.63 3.31-1.24 6.63-1.95 9.92-.4 1.86-.93 3.71-1.54 5.52-.53 1.59.93 4.37 2.6 4.57 2.69.32 5.4.5 8.09.84 8.6 1.09 7.87-18.49 7.76-23.29-.18-7.85-.69-21.21 8.87-23.32 4.45-.98 11.99-7.58 16.16-3.61.18.17.34.47.34.72.14 6.44-3.21 12.78-3.81 19.55-.56 6.33-3.49 26.45 4.56 29.22 2.65.91 5.28.04 7.91.09.96.02 1.72-1.7 1.61-3.04-.23-3.05-.41-6.1-.63-9.16-2.63-37.44-3.87-78.83 5.77-115.3 1.16-4.4 3.28-7.93 6.46-10.96 1.52-1.45 3.54-1.96 5.52-2.44 3.56-.85 7.31-1.64 10.94-.66 4.79 1.29 5.85 5.75 7.61 9.78 1.23 2.8 1.47 5.85 2.12 8.79 1.05 4.7 2.44 9.16 2.78 14.08.38 5.49.53 10.99.48 16.49-.1 10.94-1.03 21.86-2.63 32.68-2.17 14.67-5.55 29.14-9.75 43.36-.2.68-.34 1.39-.6 2.06-.4 1.06-.26 1.95.81 2.42 3.7 1.62 8.84-1.45 11.41-3.94 4.5-4.36 7.84-9.68 10.79-15.17 1.47-2.73 2.68-5.72 4.34-8.34 4.02-6.36 14.12-8.43 20.65-5.47 3.06 1.39 6.54 8.55 10.07 6.81.48-.23.99-.41 1.5-.56 9.34-2.83 10.84-14.37 13.69-21.9.71-1.88 3.01-2.17 4.43-.7 3.81 3.95 7.99 7.61 10.81 12.33 3.87 6.47 6.42 10.02 12.63 14.29 1.58 1.09 3.37 2.14 3.39 4.38.01.83-.29 1.78-.76 2.47-5.62 8.22-16.36 18.03-13.79 29.08.16.68.41 1.4 1.01 1.75 6.54 3.85 11.87-4.66 12.84-9.62.24-1.23.16-2.52.34-3.77 1.18-8.23 2.19-16.71 4.74-24.66.57-1.76 1.34-3.48 2.16-5.14 1.17-2.38 2.33-4.78 3.76-7 4.94-7.7 15.7-1.59 20.02 3.01.79.84 1.58.86 2.3-.09 1.01-1.34 2.02-2.69 3.01-4.04 2.61-3.57 4.91-4.54 10.09-3.14 5.85 1.58 11.32 2.49 14.41 8.37 1.42 2.7 2.1 5.73 2.65 8.73 1.37 7.5.79 14.93 1.62 22.34.36 3.16 1.61 5.94 4.62 7.54 1.15.61 3.42-.34 4.36-1.16 5.35-4.64 2.15-20.98 2.14-27.3-.01-3.7-.11-7.41-.01-11.1.02-.66.77-1.4 1.34-1.94 3.92-3.69 10.75-7.47 16.04-8.58 3.75-.79 4.79 2.39 4.12 5.35-2.56 11.26-9.44 30.2-3.57 41.22.64 1.6 1.96 2.67 3.88 2.72.82.02 1.65.14 2.47.26 2.42.34 4.07-.73 4.99-2.97.66-1.59 1.77-2.99 2.38-4.59 3.89-10.19 4.09-20.79 9.69-30.51 3.98-6.9 14.75-12.7 21.64-7.1 1.8 1.47 3.61 2.94 5.41 4.4 6.46 5.26 7.66 18.61 8.56 26.45.62 5.42-1.84 16.83 3.66 20.32.24.15.54.28.81.28 5.29-.02 7.34-1.71 11.84-4.23.58-.33 1.41-.36 2.11-.31 7.35.5 5.71 15.62 6.65 20.5.55 2.84-.1 4.79-2.77 6.17-7.12 3.69-16.2 4.45-23.57.96-.78-.37-1.44-1.08-2.07-1.71-1.77-1.77-3.77-1.8-5.53.01-1.66 1.71-3.21 3.54-4.97 5.15-6.63 6.07-17.65.92-22.04-5.36a78.97 78.97 0 0 1-2.13-3.25c-1.06-1.69-3-1.94-4.36-.49-1.37 1.45-2.56 3.11-4.05 4.41-8.63 7.54-16.42 5.68-22.58-2.8-1.25-1.72-3.19-1.23-4.45.68-1.43 2.18-3.04 4.36-5.01 6.03-7.56 6.37-17.91-.92-23.02-6.66-3.42-3.85-2.42-12.12-2.67-16.85-.23-4.4 2.36-26.95-3.75-27.93-1.36-.22-2.72 1.2-3.64 3.2-1.01 2.21-.68 4.48-.79 6.74-.64 13.08-.37 26.81 1.32 40.06 1.03 8.12-10.32 3.88-14.65 3.16-1.3-.22-3.2-2.74-3.19-4.31.06-14.8.48-29.58-.1-44.36-.06-1.58-.22-3.21-.7-4.71-.25-.78-1.17-1.65-1.96-1.87-1.33-.36-2.48.54-3.07 1.68-2.5 4.83-1.94 12.26-2.52 17.61-.65 5.96-1.45 11.96-3.17 17.72-3.23 10.87-10.02 20.26-22.2 20.96-12.13.7-22.04-8.12-24.47-19.65-1.81-8.58 1.38-18.3 5.17-25.97 1.62-3.27 3.71-6.15 6.07-8.89 1.07-1.23-.05-3.37-1.89-3.71-3.83-.69-11.28 5-14.96 6.51-1.18.48-1.52 1.49-1.46 2.61.43 8 .76 16.1-.51 24.05-1.21 7.6-4.44 13.5-8.83 19.69-.48.68-1.59.89-2.36 1.39-6.17 4.07-13.91 3.73-20.03-.24-7.24-4.69-8.46-12.01-11.54-19.39-.62-1.49-1.38-1.83-2.89-1.28-1.77.63-3.58 1.29-5.18 2.24-.46.27-.68 1.89-.32 2.43 1.86 2.74 2.33 6 3.58 8.96 1.27 3.01 2.51 6.03 3.63 9.1 4.13 11.29 4.38 24.01 4.46 35.89.01 2.06-.67 4.11-.98 6.18-.17 1.1-.14 2.23-.32 3.33-2.79 16.59-9.94 33.13-23.31 43.73-1.13.9-2.36 1.77-3.68 2.33-1.88.8-3.81.79-5.75-.18-1.92-.97-3.98-1.7-5.47-3.33-6.13-6.72-7.7-16.35-8.49-25.03-1.79-19.62-4.08-39.2-4.33-58.88-.02-1.25-.62-2.04-1.87-2.21-12.77-1.81-17.11-7.27-22.94-18.02-.37-.68-1.29-1.2-2.06-1.47-.94-.33-1.46.31-1.76 1.25-1.61 5.02-5.23 8.83-8.42 12.74-3.62 4.44-8.71 6.8-14.71 5.53-3.33-.7-6.55-1.78-8.76-4.77-1.14-1.54-2.64-2.87-4.82-1.8-5.08 2.5-7.89 7.08-14.15 7.32-4.03.15-8.11-1.42-10.99-4.24-3.91-3.83-4.96-11.38-10.26-7.06-2.8 2.28-3.99 6.37-6.85 8.57-3.3 2.54-7.7 3.59-11.79 2.83-4.39-.82-8.24-3.63-10.97-7.16-2.16-2.8-5.82-17.21-10.09-10.86-2.62 3.89-5.19 7.85-8.48 11.19-3.29 3.33-7.43 6.03-12.06 6.75-20.28 3.15-30.22-31.71-32.67-46.11-4.11-24.13-3.46-50.82 1.19-74.82a151.56 151.56 0 0 1 9.11-30.02c7.3-17.34 32.1-24.46 45.05-8.26 2.8 3.5 4.6 7.69 6.15 11.9 2.93 7.98 6.48 18.95 6.17 27.57-.08 2.24-.97 4.56-2.81 5.83-6.4 4.41-11.45-3.45-13.09-8.42-1.2-3.63-2.4-7.25-3.6-10.88-1.38-4.18-2.87-8.53-5.98-11.65-5.28-5.29-13.38-3.82-16.12 3.17-5.19 13.27-8.01 27.39-9.1 41.6zm106.38 23.58c.72 4.73 1.65 9.41 2.81 14.01.5 1.99 2.02 4.34 3.69 5.31 3.5-14.23 3.91-30.04 4.04-44.7.08-8.85-.47-17.71-1.65-26.49-.48-3.55-3.63-23.41-6.41-11.06-4.57 20.3-5.63 42.11-2.48 62.93zm102.54 104.34c-.02-4.41-.12-8.8-.51-13.21-.39-4.45-1.27-8.86-2.47-13.16-1.21-4.32-3.11-8.34-4.58-12.57-.58-1.66-.81-3.44-1.56-5.04-.5-1.06-3.56-4.87-3.81-1.8-.57 7.19-.78 14.71.24 21.87.49 3.75.02 7.78.72 11.62.8 4.41.93 8.76 1.19 13.23.27 4.72.66 9.43.96 14.15.36 5.6.71 11.2 1.12 16.8.08 1.06.25 4.81 2.18 4.33 1.15-.28 1.89-3.3 2.18-4.24.75-2.44 1.45-4.9 2.05-7.38 1.08-4.5 2.06-9.46 2.25-14.1.1-2.5.06-4.99.06-7.49-.01-1-.02-2-.02-3.01zm-14.19-100.28c.01.09 2.01-2.2 2.16-2.82.7-2.93.75-6.13 1.38-9.13.73-3.48 1.37-6.97 1.92-10.48 1.1-7.02 1.85-14.09 2.21-21.18.31-6.11.33-12.24.02-18.35-.25-4.96-1.96-9.98-1.93-14.82 0-.43-.57-1.09-1.01-1.23-.44-.13-1.34.1-1.52.44-.46.86-.8 1.87-.87 2.84-1.61 22.47-3.4 44.79-2.92 67.34.03 1.29.09 2.58.19 3.86.08 1.1.23 2.19.37 3.53zm-125.62 31.94c.36-3.67-.59-11.37-2.79-15.54-.95-1.8-3.71-3.17-5.5-2.3-3.29 1.61-5.7 4.19-6.55 7.78-.72 3.03-1.71 5.99-1.77 9.24-.04 2.36-.01 4.39 1.01 6.6 1.46 3.17 3.54 4.76 7.07 4.74 1.65-.01 3.1-.41 4.65-.84 2.89-.8 4.25-3.65 4.11-6.21-.06-1.15-.15-2.31-.23-3.47zm378.87-4.14c-.02-1.93-.26-3.86-.68-5.74-.72-3.22-2.75-11.29-7.22-10.99-1.63.11-2.28 1.34-3.05 2.69-3.64 6.37-9.12 21.42-1.5 27.03 3.12 2.3 8.89.61 10.47-2.95 1.4-3.16 2.02-6.6 1.98-10.04zm-193.99-1.67c.08-2.59-.13-5.17-1.01-7.73-.49-1.4-1.85-2.82-3.2-3.51-1.85-.95-5 .22-6.36 1.59-3.35 3.38-3.64 9.04-4.28 13.46-.14.96-.15 1.94-.15 2.91-.02 4.85 1.52 7.23 6.09 8.62 1.08.33 2.69.37 3.53-.21 2.68-1.85 4.37-3.94 4.68-7.23.25-2.64.62-5.28.7-7.9zm-153.35 38.09c-.82-1.25-1.41-2.13-1.99-3.02-.59.46-1.55.83-1.7 1.41-.27 1.08.94 2.52 1.84 2.42.52-.04 1.02-.43 1.85-.81zm187.82-3.58c-.15-.1-.29-.2-.44-.29-.52.77-1.04 1.54-1.57 2.31.36.22.72.43 1.07.64.37-1.04.66-1.85.94-2.66zm-275.08 8.14c.65-.41 1.19-.75 1.8-1.13-.33-.41-.62-.77-.91-1.12-1.38.96-1.38.96-.89 2.25z"/><path class="st0" d="M186.61 63.6c2.86-.21 6.35 1.03 8.37 2.39 2.36 1.58 4.19 3.91 5.32 6.52.8 1.84.45 2.87.36 4.69-.12 2.32.31 4.85-.7 6.99-1.78 3.78-5.01 5.39-8.72 6.68-3.14 1.09-6.22.45-8.96-.53-5.41-1.95-10.59-6.71-10.08-13.07.52-6.55 7-10.92 12.42-13.22.6-.26 1.27-.4 1.99-.45zM427.18 90.57c-6.13.68-13.11-4.98-14.11-11.13-.39-2.41-.61-4.91.78-7.21 1.03-1.71 1.66-3.78 3.03-5.13 7.14-7.05 15.09-6.17 21.4 1.22.98 1.14 2.14 2.63 2.15 3.97.05 7.91-3.53 14.79-11.11 17.75-.7.27-1.41.45-2.14.53zM131.95 179.23c-.83.38-1.32.77-1.85.82-.9.09-2.11-1.35-1.84-2.42.15-.58 1.11-.95 1.7-1.41.58.88 1.16 1.76 1.99 3.01zM319.77 175.65c-.29.81-.57 1.62-.93 2.66-.35-.21-.71-.43-1.07-.64.52-.77 1.04-1.54 1.57-2.31.14.1.29.19.43.29zM44.69 183.79c-.49-1.29-.49-1.29.9-2.26.29.35.58.71.91 1.12-.62.4-1.16.74-1.81 1.14z"/><g><path class="st0" d="M45.47 230.5c0 .95-.24 1.98-.7 3.09-.47 1.11-1.21 2.2-2.22 3.27-1.01 1.07-2.29 1.94-3.86 2.6-1.57.67-3.39 1-5.47 1-1.58 0-3.02-.15-4.31-.45-1.29-.3-2.47-.77-3.52-1.4-1.06-.63-2.03-1.47-2.91-2.5-.79-.94-1.46-1.99-2.02-3.15s-.98-2.41-1.26-3.73c-.28-1.32-.42-2.72-.42-4.21 0-2.41.35-4.57 1.05-6.47.7-1.91 1.7-3.54 3.01-4.89 1.31-1.35 2.84-2.39 4.59-3.09 1.76-.71 3.63-1.06 5.61-1.06 2.42 0 4.58.48 6.47 1.45 1.89.97 3.34 2.16 4.35 3.58 1.01 1.42 1.51 2.77 1.51 4.03 0 .69-.25 1.31-.74 1.84s-1.08.8-1.78.8c-.78 0-1.36-.18-1.75-.55-.39-.37-.82-1-1.3-1.9-.79-1.48-1.72-2.59-2.79-3.33-1.07-.74-2.39-1.1-3.95-1.1-2.49 0-4.47.95-5.95 2.84-1.48 1.89-2.22 4.58-2.22 8.07 0 2.33.33 4.26.98 5.81.65 1.55 1.58 2.7 2.78 3.46 1.2.76 2.6 1.14 4.21 1.14 1.74 0 3.22-.43 4.42-1.3 1.2-.86 2.11-2.13 2.73-3.81.26-.79.58-1.43.96-1.93s.99-.75 1.84-.75c.72 0 1.34.25 1.86.76.54.5.8 1.13.8 1.88zM50.96 227.58v-14.39c0-1.23.28-2.14.83-2.76.55-.61 1.28-.92 2.17-.92.94 0 1.68.31 2.24.92.55.61.83 1.53.83 2.76v14.72c0 1.67.19 3.07.56 4.2.37 1.12 1.04 1.99 1.99 2.61.95.62 2.29.93 4 .93 2.37 0 4.04-.63 5.02-1.89.98-1.26 1.47-3.17 1.47-5.73v-14.84c0-1.24.27-2.16.82-2.77.54-.61 1.27-.91 2.18-.91.91 0 1.65.3 2.22.91.56.61.85 1.53.85 2.77v14.39c0 2.34-.23 4.29-.68 5.86-.46 1.57-1.32 2.94-2.58 4.12-1.09 1.01-2.36 1.74-3.8 2.21-1.44.46-3.13.69-5.06.69-2.3 0-4.28-.25-5.94-.74-1.66-.5-3.02-1.27-4.06-2.31-1.05-1.04-1.82-2.38-2.31-4-.51-1.63-.75-3.57-.75-5.83zM105.43 230.97c0 1.81-.47 3.44-1.4 4.88-.93 1.44-2.3 2.57-4.09 3.39-1.8.82-3.93 1.23-6.39 1.23-2.95 0-5.39-.56-7.31-1.67a9.65 9.65 0 0 1-3.32-3.22c-.85-1.34-1.28-2.64-1.28-3.91 0-.74.26-1.36.77-1.89.51-.52 1.16-.79 1.95-.79.64 0 1.18.2 1.62.61.44.41.82 1.01 1.13 1.82.38.95.79 1.75 1.24 2.39.44.64 1.06 1.17 1.87 1.58.8.42 1.86.62 3.16.62 1.8 0 3.26-.42 4.38-1.26 1.12-.84 1.68-1.88 1.68-3.13 0-.99-.3-1.8-.91-2.42-.61-.62-1.39-1.09-2.35-1.42-.96-.33-2.24-.67-3.85-1.04-2.15-.5-3.95-1.09-5.4-1.77-1.45-.67-2.6-1.59-3.45-2.76-.85-1.16-1.28-2.61-1.28-4.34 0-1.65.45-3.11 1.35-4.39.9-1.28 2.2-2.26 3.9-2.95 1.7-.69 3.7-1.03 6-1.03 1.84 0 3.43.23 4.77.68 1.34.46 2.45 1.06 3.34 1.82.88.76 1.53 1.55 1.94 2.38.41.83.61 1.64.61 2.43 0 .72-.26 1.37-.77 1.95-.51.58-1.15.87-1.91.87-.69 0-1.22-.17-1.58-.52-.36-.35-.75-.91-1.17-1.7-.54-1.13-1.2-2.01-1.96-2.64-.76-.63-1.99-.95-3.68-.95-1.57 0-2.83.34-3.79 1.03s-1.44 1.51-1.44 2.48c0 .6.16 1.12.49 1.55.33.44.78.81 1.35 1.12.57.31 1.15.56 1.74.74.59.18 1.55.44 2.9.78 1.69.39 3.22.83 4.58 1.31 1.37.48 2.53 1.05 3.49 1.74.96.68 1.71 1.54 2.25 2.58.56 1.03.82 2.31.82 3.82zM130.02 215.02h-6.62v21.75c0 1.25-.28 2.18-.84 2.79-.56.61-1.28.91-2.16.91-.9 0-1.63-.31-2.19-.92-.57-.61-.85-1.54-.85-2.78v-21.75h-6.62c-1.03 0-1.8-.23-2.31-.68-.5-.46-.76-1.06-.76-1.81 0-.78.26-1.39.79-1.84.52-.45 1.28-.67 2.28-.67h19.27c1.05 0 1.83.23 2.34.69.51.46.77 1.07.77 1.82s-.26 1.35-.78 1.81c-.51.45-1.29.68-2.32.68zM149.33 209.51c3.1 0 5.77.63 7.99 1.89 2.23 1.26 3.91 3.05 5.05 5.37 1.14 2.32 1.71 5.05 1.71 8.18 0 2.31-.31 4.42-.94 6.31-.63 1.89-1.57 3.53-2.82 4.92-1.25 1.39-2.79 2.45-4.61 3.19-1.82.73-3.91 1.1-6.27 1.1-2.34 0-4.44-.38-6.29-1.13-1.85-.76-3.4-1.82-4.63-3.2-1.24-1.38-2.17-3.03-2.81-4.96-.63-1.93-.95-4.02-.95-6.27 0-2.3.33-4.41.99-6.33.66-1.92 1.62-3.55 2.87-4.9 1.25-1.35 2.78-2.38 4.57-3.09 1.81-.72 3.86-1.08 6.14-1.08zm8.62 15.39c0-2.19-.35-4.09-1.06-5.7-.71-1.61-1.72-2.82-3.03-3.64-1.31-.82-2.82-1.24-4.52-1.24-1.21 0-2.33.23-3.36.68a7.387 7.387 0 0 0-2.65 1.99c-.74.87-1.33 1.98-1.76 3.34-.43 1.35-.64 2.88-.64 4.56 0 1.7.21 3.24.64 4.61.43 1.38 1.03 2.51 1.82 3.42.78.91 1.68 1.58 2.7 2.03 1.01.45 2.13.67 3.34.67 1.55 0 2.98-.39 4.28-1.16 1.3-.78 2.33-1.97 3.1-3.59.75-1.6 1.14-3.6 1.14-5.97zM179.39 235.44l-4.8-19.07v20.66c0 1.14-.26 2-.77 2.57-.51.57-1.19.86-2.03.86-.82 0-1.48-.28-2-.85-.52-.56-.78-1.43-.78-2.58v-23.68c0-1.31.34-2.19 1.02-2.64.68-.46 1.6-.68 2.76-.68h1.88c1.13 0 1.95.1 2.46.31.51.2.89.57 1.13 1.1.24.53.52 1.4.84 2.59l4.35 16.4 4.35-16.4c.31-1.2.59-2.06.84-2.59.25-.53.62-.9 1.13-1.1.51-.2 1.33-.31 2.46-.31h1.88c1.16 0 2.08.23 2.76.68.68.46 1.02 1.34 1.02 2.64v23.68c0 1.14-.26 2-.77 2.57-.51.57-1.19.86-2.05.86-.8 0-1.46-.29-1.98-.86-.52-.57-.78-1.43-.78-2.57v-20.66l-4.8 19.07c-.31 1.24-.57 2.15-.77 2.73-.2.58-.56 1.11-1.09 1.58-.53.48-1.27.71-2.21.71-.71 0-1.31-.15-1.8-.46-.49-.31-.87-.7-1.14-1.17-.27-.48-.49-1-.64-1.58-.15-.58-.31-1.18-.47-1.81z"/></g><g><path class="st0" d="M289.59 215.02h-6.62v21.75c0 1.25-.28 2.18-.84 2.79-.56.61-1.28.91-2.16.91-.9 0-1.63-.31-2.19-.92-.57-.61-.85-1.54-.85-2.78v-21.75h-6.62c-1.03 0-1.8-.23-2.31-.68-.5-.46-.76-1.06-.76-1.81 0-.78.26-1.39.79-1.84.52-.45 1.28-.67 2.28-.67h19.27c1.05 0 1.83.23 2.34.69.51.46.77 1.07.77 1.82s-.26 1.35-.78 1.81c-.51.45-1.28.68-2.32.68zM296.54 236.77v-23.58c0-1.23.28-2.14.84-2.76.56-.61 1.28-.92 2.16-.92.91 0 1.65.3 2.22.91.56.61.85 1.53.85 2.77v23.58c0 1.24-.28 2.16-.85 2.78-.56.61-1.3.92-2.22.92-.87 0-1.59-.31-2.15-.93s-.85-1.55-.85-2.77zM315.32 213.18v21.79h12.29c.98 0 1.73.24 2.26.71.52.48.79 1.08.79 1.8 0 .74-.26 1.33-.78 1.79-.52.46-1.27.68-2.27.68h-14.64c-1.32 0-2.27-.29-2.85-.88-.58-.58-.87-1.53-.87-2.84v-23.05c0-1.23.28-2.14.83-2.76.55-.61 1.28-.92 2.17-.92.91 0 1.65.3 2.22.91.57.61.85 1.54.85 2.77zM354.36 214.69H340.7v7.35h12.58c.93 0 1.62.21 2.07.62.46.42.68.96.68 1.64 0 .68-.22 1.24-.67 1.66-.45.43-1.14.64-2.08.64H340.7v8.51h14.13c.95 0 1.67.22 2.15.66.48.44.73 1.03.73 1.77 0 .71-.24 1.28-.73 1.73-.48.44-1.2.66-2.15.66h-16.48c-1.32 0-2.27-.29-2.85-.88-.58-.58-.87-1.53-.87-2.84v-22.5c0-.87.13-1.58.39-2.13.26-.55.66-.95 1.21-1.2.55-.25 1.26-.38 2.11-.38h16.01c.97 0 1.68.21 2.15.64.47.43.7.99.7 1.68 0 .71-.24 1.28-.7 1.7-.46.46-1.17.67-2.14.67z"/></g></svg>